HIERARCHY
ROOT hip
{
	OFFSET 0.000000 0.000000 0.000000
	CHANNELS 6 Xposition Yposition Zposition Xrotation Zrotation Yrotation 
	JOINT abdomen
	{
		OFFSET 0.000000 3.422050 0.000000
		CHANNELS 3 Xrotation Zrotation Yrotation 
		JOINT chest
		{
			OFFSET 0.000000 8.486693 -0.684411
			CHANNELS 3 Xrotation Zrotation Yrotation 
			JOINT neck
			{
				OFFSET 0.000000 10.266162 -0.273764
				CHANNELS 3 Xrotation Zrotation Yrotation 
				JOINT head
				{
					OFFSET 0.000000 3.148285 0.000000
					CHANNELS 3 Xrotation Zrotation Yrotation 
					End Site
					{
						OFFSET 0.000000 3.148289 0.000000
					}
				}
			}
			JOINT lCollar
			{
				OFFSET 3.422053 6.707223 -0.821293
				CHANNELS 3 Yrotation Zrotation Xrotation 
				JOINT lShldr
				{
					OFFSET 3.285171 0.000000 0.000000
					CHANNELS 3 Zrotation Yrotation Xrotation 
					JOINT lForeArm
					{
						OFFSET 10.129278 0.000000 0.000000
						CHANNELS 3 Yrotation Zrotation Xrotation 
						JOINT lHand
						{
							OFFSET 8.486692 0.000000 0.000000
							CHANNELS 3 Zrotation Yrotation Xrotation 
							End Site
							{
								OFFSET 4.106464 0.000000 0.000000
							}
						}
					}
				}
			}
			JOINT rCollar
			{
				OFFSET -3.558935 6.707223 -0.821293
				CHANNELS 3 Yrotation Zrotation Xrotation 
				JOINT rShldr
				{
					OFFSET -3.148289 0.000000 0.000000
					CHANNELS 3 Zrotation Yrotation Xrotation 
					JOINT rForeArm
					{
						OFFSET -10.266159 0.000000 0.000000
						CHANNELS 3 Yrotation Zrotation Xrotation 
						JOINT rHand
						{
							OFFSET -8.349810 0.000000 0.000000
							CHANNELS 3 Zrotation Yrotation Xrotation 
							End Site
							{
								OFFSET -4.106464 0.000000 0.000000
							}
						}
					}
				}
			}
		}
	}
	JOINT lThigh
	{
		OFFSET 5.338403 -1.642589 1.368821
		CHANNELS 3 Xrotation Zrotation Yrotation 
		JOINT lShin
		{
			OFFSET -2.053232 -20.121670 0.000000
			CHANNELS 3 Xrotation Zrotation Yrotation 
			JOINT lFoot
			{
				OFFSET 0.000000 -19.300380 -1.231939
				CHANNELS 3 Xrotation Yrotation Zrotation 
				End Site
				{
					OFFSET 0.000000 -2.463878 4.653993
				}
			}
		}
	}
	JOINT rThigh
	{
		OFFSET -5.338403 -1.642589 1.368821
		CHANNELS 3 Xrotation Zrotation Yrotation 
		JOINT rShin
		{
			OFFSET 2.053232 -20.121670 0.000000
			CHANNELS 3 Xrotation Zrotation Yrotation 
			JOINT rFoot
			{
				OFFSET 0.000000 -19.300380 -1.231939
				CHANNELS 3 Xrotation Yrotation Zrotation 
				End Site
				{
					OFFSET 0.000000 -2.463878 4.653993
				}
			}
		}
	}
}
MOTION
Frames: 16
Frame Time: 0.039918
0.000000 7.510674 -0.389513 -157.067062 -0.000003 -0.000001 65.629898 0.400167 0.002134 25.130190 3.635726 0.819574 36.223774 0.000000 0.000000 -5.246617 0.000000 0.000000 -11.741601 -13.687619 -2.892057 -50.886349 -5.557513 3.500173 -60.003963 0.001412 -55.001442 -31.003683 10.398213 23.596907 12.000055 13.935599 -2.965860 50.454868 5.536211 3.428114 58.506752 -1.220610 -55.012413 32.716938 -8.793941 24.565115 -113.986061 28.917885 15.353157 43.120708 -70.608490 18.913971 11.793187 5.665889 -1.661001 -111.515511 -30.287054 -16.476053 55.352467 67.415085 -42.673080 11.793108 -5.669735 1.657884 
0.000000 7.510674 -0.369012 -157.067062 -0.000003 -0.000001 65.629898 0.400167 0.002134 25.130190 3.635726 0.819574 35.948563 0.000000 0.000000 -4.492407 0.000000 0.000000 -11.665127 -13.548498 -2.890279 -51.009468 -5.566156 3.523320 -60.003963 0.001412 -55.001442 -31.003683 10.398213 23.596907 11.909556 13.783293 -2.959633 50.600483 5.545986 3.454908 58.585300 -1.156474 -55.010944 32.626030 -8.877807 24.513014 -113.986061 28.917885 15.353157 43.088791 -70.497833 18.944008 11.793187 5.665889 -1.661001 -111.515511 -30.287054 -16.476053 55.352467 67.415085 -42.673080 11.793108 -5.669735 1.657884 
0.000000 7.510674 -0.348511 -157.067062 -0.000003 -0.000001 65.629898 0.400167 0.002134 25.130190 3.635726 0.819574 35.673382 0.000000 0.000000 -3.738328 0.000000 0.000000 -11.588703 -13.409377 -2.888692 -51.132595 -5.574752 3.546486 -60.003963 0.001412 -55.001442 -31.003683 10.398213 23.596907 11.819132 13.630977 -2.953658 50.746094 5.555692 3.481727 58.663834 -1.092341 -55.009563 32.535194 -8.961757 24.461037 -113.986061 28.917885 15.353155 43.057224 -70.387169 18.973701 11.793187 5.665889 -1.661001 -111.515511 -30.287054 -16.476053 55.352467 67.415085 -42.673080 11.793108 -5.669735 1.657884 
0.000000 7.510674 -0.328011 -157.067062 -0.000003 -0.000001 65.629898 0.400167 0.002134 25.130190 3.635726 0.819574 35.398205 0.000000 0.000000 -2.984444 0.000000 0.000000 -11.512326 -13.270251 -2.887297 -51.255730 -5.583298 3.569671 -60.003963 0.001412 -55.001442 -31.003683 10.398213 23.596907 11.728782 13.478654 -2.947933 50.891720 5.565331 3.508572 58.742367 -1.028201 -55.008259 32.444401 -9.045784 24.409180 -113.986061 28.917885 15.353157 43.025990 -70.276497 19.003042 11.793186 5.665888 -1.661001 -111.515511 -30.287054 -16.476053 55.352467 67.415085 -42.673080 11.793108 -5.669735 1.657884 
0.000000 7.510674 -0.307510 -157.067062 -0.000003 -0.000001 65.629898 0.400167 0.002134 25.130190 3.635726 0.819574 35.123024 0.000000 0.000000 -2.230824 0.000000 0.000000 -11.435998 -13.131128 -2.886093 -51.378860 -5.591792 3.592873 -60.003963 0.001412 -55.001442 -31.003683 10.398213 23.596907 11.638510 13.326327 -2.942460 51.037354 5.574904 3.535441 58.820908 -0.964065 -55.007061 32.353668 -9.129892 24.357449 -113.986061 28.917885 15.353157 42.995110 -70.165848 19.032066 11.793186 5.665888 -1.661001 -111.515511 -30.287054 -16.476053 55.352467 67.415085 -42.673080 11.793108 -5.669735 1.657884 
0.000000 7.510674 -0.287009 -157.067062 -0.000003 -0.000001 65.629898 0.400167 0.002134 25.130190 3.635726 0.819574 34.847874 0.000000 0.000000 -1.477529 0.000000 0.000000 -11.359719 -12.992009 -2.885081 -51.502010 -5.600238 3.616095 -60.003963 0.001412 -55.001442 -31.003683 10.398213 23.596907 11.548310 13.173995 -2.937237 51.182976 5.584406 3.562333 58.899433 -0.899928 -55.005924 32.263004 -9.214085 24.305849 -113.986061 28.917885 15.353157 42.964523 -70.055161 19.060753 11.793186 5.665888 -1.661001 -111.515511 -30.287054 -16.476053 55.352467 67.415085 -42.673080 11.793107 -5.669735 1.657884 
0.000000 7.510674 -0.266509 -157.067062 -0.000003 -0.000001 65.629898 0.400167 0.002134 25.130190 3.635726 0.819574 34.572739 0.000000 0.000000 -0.724623 0.000000 0.000000 -11.283484 -12.852888 -2.884258 -51.625156 -5.608634 3.639334 -60.003963 0.001412 -55.001442 -31.003683 10.398213 23.596907 11.458180 13.021656 -2.932262 51.328613 5.593842 3.589251 58.977966 -0.835789 -55.004906 32.172382 -9.298352 24.254364 -113.986061 28.917885 15.353157 42.934322 -69.944527 19.089123 11.793188 5.665889 -1.661001 -111.515511 -30.287054 -16.476053 55.352467 67.415085 -42.673080 11.793107 -5.669735 1.657884 
0.000000 7.510674 -0.246008 -157.067062 -0.000003 -0.000001 65.629898 0.400167 0.002134 25.130190 3.635726 0.819574 34.297623 0.000000 0.000000 0.027825 0.000000 0.000000 -11.207299 -12.713773 -2.883626 -51.748299 -5.616981 3.662592 -60.003963 0.001412 -55.001442 -31.003683 10.398213 23.596907 11.368125 12.869320 -2.927538 51.474255 5.603209 3.616193 59.056488 -0.771646 -55.003960 32.081821 -9.382699 24.203007 -113.986061 28.917885 15.353155 42.904385 -69.833824 19.117153 11.793188 5.665889 -1.661001 -111.515511 -30.287054 -16.476053 55.352467 67.415085 -42.673080 11.793107 -5.669735 1.657884 
0.000000 7.510674 -0.225507 -157.067062 -0.000003 -0.000001 65.629898 0.400167 0.002134 25.130190 3.635726 0.819574 34.022537 0.000000 0.000000 0.779756 0.000000 0.000000 -11.131155 -12.574659 -2.883184 -51.871456 -5.625277 3.685867 -60.003963 0.001412 -55.001442 -31.003683 10.398213 23.596907 11.278139 12.716979 -2.923061 51.619900 5.612506 3.643157 59.135006 -0.707507 -55.003109 31.991312 -9.467120 24.151760 -113.986061 28.917885 15.353157 42.874790 -69.723160 19.144890 11.793187 5.665889 -1.661001 -111.515511 -30.287054 -16.476053 55.352467 67.415085 -42.673080 11.793107 -5.669735 1.657884 
0.000000 7.510674 -0.205007 -157.067062 -0.000003 -0.000001 65.629898 0.400167 0.002134 25.130190 3.635726 0.819574 33.747478 0.000000 0.000000 1.531100 0.000000 0.000000 -11.055060 -12.435554 -2.882932 -51.994602 -5.633523 3.709160 -60.003963 0.001412 -55.001442 -31.003683 10.398213 23.596907 11.188225 12.564641 -2.918833 51.765533 5.621735 3.670144 59.213512 -0.643362 -55.002327 31.900867 -9.551622 24.100653 -113.986061 28.917885 15.353157 42.845486 -69.612473 19.172300 11.793187 5.665889 -1.661001 -111.515511 -30.287054 -16.476053 55.352467 67.415085 -42.673080 11.793109 -5.669736 1.657884 
0.000000 7.510674 -0.184506 -157.067062 -0.000003 -0.000001 65.629898 0.400167 0.002134 25.130190 3.635726 0.819574 33.472446 0.000000 0.000000 2.281797 0.000000 0.000000 -10.979006 -12.296449 -2.882868 -52.117760 -5.641720 3.732471 -60.003963 0.001412 -55.001442 -31.003683 10.398213 23.596907 11.098374 12.412300 -2.914851 51.911179 5.630896 3.697155 59.292027 -0.579222 -55.001644 31.810472 -9.636200 24.049660 -113.986061 28.917885 15.353157 42.816498 -69.501770 19.199408 11.793187 5.665889 -1.661001 -111.515511 -30.287054 -16.476053 55.352467 67.415085 -42.673080 11.793109 -5.669736 1.657884 
0.000000 7.510674 -0.164005 -157.067062 -0.000003 -0.000001 65.629898 0.400167 0.002134 25.130190 3.635726 0.819574 33.197460 0.000000 0.000000 3.031784 0.000000 0.000000 -10.902995 -12.157351 -2.882994 -52.240929 -5.649866 3.755800 -60.003963 0.001412 -55.001442 -31.003683 10.398213 23.596907 11.008596 12.259964 -2.911117 52.056820 5.639987 3.724188 59.370544 -0.515084 -55.001060 31.720140 -9.720856 23.998795 -113.986061 28.917885 15.353157 42.787800 -69.391090 19.226231 11.793187 5.665889 -1.661001 -111.515511 -30.287054 -16.476053 55.352467 67.415085 -42.673080 11.793109 -5.669736 1.657884 
0.000000 7.510674 -0.143505 -157.067062 -0.000003 -0.000001 65.629898 0.400167 0.002134 25.130190 3.635726 0.819574 32.922504 0.000000 0.000000 3.780992 0.000000 0.000000 -10.827028 -12.018260 -2.883308 -52.364079 -5.657962 3.779145 -60.003963 0.001412 -55.001442 -31.003683 10.398213 23.596907 10.918885 12.107631 -2.907630 52.202477 5.649012 3.751245 59.449051 -0.450942 -55.000557 31.629866 -9.805587 23.948061 -113.986061 28.917885 15.353155 42.759403 -69.280411 19.252760 11.793186 5.665888 -1.661001 -111.515511 -30.287054 -16.476053 55.352467 67.415085 -42.673080 11.793109 -5.669736 1.657884 
0.000000 7.510674 -0.123004 -157.067062 -0.000003 -0.000001 65.629898 0.400167 0.002134 25.130190 3.635726 0.819574 32.647591 0.000000 0.000000 4.529367 0.000000 0.000000 -10.751103 -11.879178 -2.883811 -52.487240 -5.666008 3.802508 -60.003963 0.001412 -55.001442 -31.003683 10.398213 23.596907 10.829234 11.955297 -2.904387 52.348125 5.657967 3.778324 59.527557 -0.386800 -55.000134 31.539648 -9.890396 23.897449 -113.986061 28.917885 15.353157 42.731281 -69.169708 19.278990 11.793186 5.665888 -1.661001 -111.515511 -30.287054 -16.476053 55.352467 67.415085 -42.673080 11.793108 -5.669735 1.657884 
0.000000 7.510674 -0.102503 -157.067062 -0.000003 -0.000001 65.629898 0.400167 0.002134 25.130190 3.635726 0.819574 32.372719 0.000000 0.000000 5.276840 0.000000 0.000000 -10.675220 -11.740102 -2.884501 -52.610405 -5.674003 3.825886 -60.003963 0.001412 -55.001442 -31.003683 10.398213 23.596907 10.739654 11.802975 -2.901392 52.493771 5.666852 3.805424 59.606064 -0.322664 -54.999805 31.449488 -9.975279 23.846960 -113.986061 28.917885 15.353157 42.703468 -69.059029 19.304934 11.793186 5.665888 -1.661001 -111.515511 -30.287054 -16.476053 55.352467 67.415085 -42.673080 11.793108 -5.669735 1.657884 
0.000000 7.510674 -0.082003 -157.067062 -0.000003 -0.000001 65.629898 0.400167 0.002134 25.130190 3.635726 0.819574 32.097893 0.000000 0.000000 6.023352 0.000000 0.000000 -10.599377 -11.601036 -2.885379 -52.733559 -5.681947 3.849282 -60.003963 0.001412 -55.001442 -31.003683 10.398213 23.596907 10.650137 11.650660 -2.898641 52.639423 5.675669 3.832546 59.684563 -0.258524 -54.999573 31.359377 -10.060233 23.796593 -113.986061 28.917885 15.353157 42.675896 -68.948311 19.330603 11.793188 5.665889 -1.661001 -111.515511 -30.287054 -16.476053 55.352467 67.415085 -42.673080 11.793108 -5.669735 1.657884 
